<svg width="28" height="29" viewBox="0 0 28 29" fill="none" xmlns="http://www.w3.org/2000/svg">
    <path d="M26.75 27.4671L18.25 18.8399M21.0833 11.6506C21.0833 12.9724 20.8268 14.2812 20.3285 15.5023C19.8301 16.7235 19.0997 17.8331 18.1788 18.7677C17.258 19.7023 16.1648 20.4437 14.9616 20.9495C13.7585 21.4553 12.4689 21.7157 11.1667 21.7157C9.86439 21.7157 8.57487 21.4553 7.37172 20.9495C6.16858 20.4437 5.07537 19.7023 4.15452 18.7677C3.23368 17.8331 2.50322 16.7235 2.00486 15.5023C1.5065 14.2812 1.25 12.9724 1.25 11.6506C1.25 8.9812 2.29479 6.42111 4.15452 4.53354C6.01426 2.64598 8.5366 1.58556 11.1667 1.58556C13.7967 1.58556 16.3191 2.64598 18.1788 4.53354C20.0385 6.42111 21.0833 8.9812 21.0833 11.6506Z" stroke="#002233" stroke-width="2" stroke-linecap="round" stroke-linejoin="round"/>
</svg>
